<?xml version="1.0" encoding="UTF-8"?>
<svg version="1.1" xmlns="http://www.w3.org/2000/svg" width="1200" height="1200">
<path d="M0 0 C396 0 792 0 1200 0 C1200 396 1200 792 1200 1200 C804 1200 408 1200 0 1200 C0 804 0 408 0 0 Z " fill="#FEFEFE" transform="translate(0,0)"/>
<path d="M0 0 C29.93649926 -0.09167187 59.87299363 -0.16225435 89.80960272 -0.20426132 C93.36102444 -0.20926287 96.91244588 -0.21444028 100.46386719 -0.21972656 C101.52419861 -0.22130043 101.52419861 -0.22130043 102.60595088 -0.22290608 C113.98298055 -0.24021043 125.35992761 -0.27169165 136.73690863 -0.30861118 C148.45075688 -0.34630079 160.1645625 -0.36829428 171.87846887 -0.37635398 C178.4411399 -0.38130279 185.0036589 -0.39350155 191.56627274 -0.42292023 C268.83229608 -0.75579945 268.83229608 -0.75579945 296 13 C297.13308594 13.5259375 298.26617188 14.051875 299.43359375 14.59375 C307.08606144 18.17993889 313.70073696 22.3074961 320 28 C320.68449219 28.60328125 321.36898438 29.2065625 322.07421875 29.828125 C333.94553576 40.92978884 343.39274847 56.59279065 344.08886719 73.10839844 C344.23154384 78.74295654 344.1618257 84.36668164 344 90 C343.97035156 91.03769531 343.94070313 92.07539062 343.91015625 93.14453125 C342.28808019 119.53293937 328.4887775 144.01347795 309.04931641 161.29199219 C298.32442553 170.23067894 282.95954026 178.56087214 269 180 C271.61202666 184.89526675 274.3216551 188.71122409 278.1875 192.75 C282.54489923 197.37497791 286.6331189 202.13485602 290.62109375 207.0859375 C293.35905042 210.43982202 296.17216465 213.7219289 299 217 C303.2933617 221.98145648 307.49232848 227.02619633 311.63671875 232.1328125 C314.97852267 236.18716634 318.40473947 240.16716972 321.83984375 244.14257812 C330 253.60094105 330 253.60094105 330 256 C330.99 256 331.98 256 333 256 C332.97824707 255.08395996 332.95649414 254.16791992 332.93408203 253.22412109 C332.81285047 244.17793741 333.51824908 235.58719976 334.875 226.625 C336.18345812 217.42944713 337.34121347 208.26801688 338 199 C338.74577077 188.6850423 339.72442132 178.40846891 340.8125 168.125 C340.8979306 167.31668732 340.98336121 166.50837463 341.07138062 165.67556763 C342.03654106 156.58601341 343.04574174 147.50251023 344.125 138.42578125 C344.22090927 137.61857635 344.31681854 136.81137146 344.41563416 135.97970581 C345.2613428 128.86669126 345.2613428 128.86669126 345.61575317 125.89331055 C348.17558309 104.32009878 350.30497387 82.70121968 352.4493494 61.08352757 C352.744015 58.11586325 353.04036794 55.14836853 353.33687019 52.18088722 C353.54223667 50.11692833 353.74474972 48.05270276 353.9471283 45.9884491 C354.07124588 44.74460953 354.19536346 43.50076996 354.32324219 42.21923828 C354.48382111 40.5917717 354.48382111 40.5917717 354.64764404 38.931427 C354.97059945 36.24459802 355.44232855 33.6462796 356 31 C356.17735957 29.51031011 356.33222656 28.01777517 356.46484375 26.5234375 C356.54283203 25.68683594 356.62082031 24.85023438 356.70117188 23.98828125 C356.85659001 22.2696906 357.01028536 20.55094314 357.16210938 18.83203125 C357.76475509 12.41360938 358.83568894 6.40371084 360 0 C386.07 0 412.14 0 439 0 C439 6.04201142 438.84263145 11.680441 438.125 17.625 C438.04636719 18.31722656 437.96773437 19.00945312 437.88671875 19.72265625 C437.32973841 24.52982505 436.69203358 29.32503876 436.046875 34.12109375 C435.09555904 41.21127376 434.21765118 48.30856391 433.36755371 55.41165161 C432.94275731 58.95962086 432.5145457 62.50717697 432.0859375 66.0546875 C431.9979187 66.78323441 431.9098999 67.51178131 431.81921387 68.2624054 C430.81788587 76.53181166 429.78597135 84.79737277 428.75 93.0625 C428.66123596 93.77074921 428.57247192 94.47899841 428.48101807 95.20870972 C427.98821412 99.13924918 427.49452037 103.06967613 427 107 C433.18817544 102.07103237 439.34019936 97.10339451 445.4375 92.0625 C446.92566951 90.83449999 448.41395056 89.60663514 449.90234375 88.37890625 C450.96364502 87.50322998 450.96364502 87.50322998 452.04638672 86.60986328 C454.52568661 84.56681111 457.0118717 82.532288 459.5 80.5 C466.27544122 74.96297024 473.02547676 69.39510975 479.77832031 63.83056641 C484.05490022 60.30685254 488.33273337 56.78466033 492.61035156 53.26220703 C496.22764791 50.28340438 499.84460131 47.30418701 503.4609375 44.32421875 C512.13144729 37.18015345 520.81452858 30.05210865 529.515625 22.9453125 C533.80784307 19.43700252 538.09513311 15.92346174 542.3671875 12.390625 C543.13144043 11.75922607 543.89569336 11.12782715 544.68310547 10.47729492 C546.2065577 9.21823951 547.72904752 7.95801853 549.25048828 6.6965332 C549.95157715 6.11734131 550.65266602 5.53814941 551.375 4.94140625 C552.00148438 4.42263916 552.62796875 3.90387207 553.2734375 3.36938477 C556.61489562 0.71918135 558.47487758 -0.24978025 562.68864441 -0.24050903 C563.65198196 -0.24325836 564.61531952 -0.24600769 565.60784912 -0.24884033 C566.66304749 -0.24164978 567.71824585 -0.23445923 568.80541992 -0.22705078 C570.47393761 -0.22748886 570.47393761 -0.22748886 572.17616272 -0.22793579 C575.86101014 -0.22653998 579.54565656 -0.21096675 583.23046875 -0.1953125 C585.78208811 -0.19158327 588.3337089 -0.18873587 590.8853302 -0.18673706 C596.92015155 -0.17987522 602.95488632 -0.16410464 608.98967296 -0.14403808 C615.86021829 -0.12168811 622.73076707 -0.11068793 629.6013397 -0.10064721 C643.73426657 -0.07973863 657.86712932 -0.04455701 672 0 C672 0.66 672 1.32 672 2 C670.15625 3.3046875 670.15625 3.3046875 667.5 4.875 C662.62101972 7.88702354 658.05349164 11.14321725 653.5 14.625 C647.53805727 19.16986581 641.45867973 23.4862072 635.25 27.6875 C629.06230736 31.87632827 623.02022894 36.16404329 617.078125 40.6953125 C611.17114435 45.11805182 605.09728884 49.31000048 599.05908203 53.55078125 C587.63059635 61.59435381 576.32398789 69.81049954 565 78 C547.82393183 90.42172099 547.82393183 90.42172099 540 96 C538.30610847 97.20967202 536.6124622 98.41968636 534.91894531 99.62988281 C533.51793918 100.63019406 532.1161362 101.62938956 530.71386719 102.62792969 C528.26491673 104.37326012 525.81971241 106.12373967 523.375 107.875 C522.60414063 108.42285156 521.83328125 108.97070312 521.0390625 109.53515625 C517.40988761 112.14121269 514.02833903 114.68324773 511 118 C516.56506875 123.7215863 522.44967375 128.95844324 528.5078125 134.1484375 C529.33023438 134.86257813 530.15265625 135.57671875 531 136.3125 C531.763125 136.96863281 532.52625 137.62476563 533.3125 138.30078125 C535 140 535 140 535 142 C535.54422607 142.21897949 536.08845215 142.43795898 536.64916992 142.66357422 C539.7751299 144.44065439 542.10971815 146.84357315 544.61328125 149.3828125 C545.14592087 149.91591034 545.67856049 150.44900818 546.2273407 150.9982605 C547.35339921 152.12733517 548.4770312 153.25883441 549.59838867 154.39257812 C551.29108744 156.10335871 552.99147489 157.80617492 554.69335938 159.5078125 C559.79963506 164.63093701 564.82114966 169.77486307 569.52124023 175.27832031 C571.88854974 178.03451424 574.39001453 180.66285186 576.875 183.3125 C581.28101147 188.0536474 585.48875173 192.89729683 589.5390625 197.94921875 C591.40753891 200.26553634 593.29615179 202.55452051 595.2109375 204.83203125 C603.64190688 214.8882904 611.46103451 225.26152113 619 236 C619.42651855 236.60328125 619.85303711 237.2065625 620.29248047 237.828125 C640.9620138 267.07572429 663.31293183 302.14749623 668.5625 338.19140625 C668.95689428 340.7232767 669.51316549 343.13942231 670.125 345.625 C673.05700364 360.37959899 671.71520704 377.20001539 664.25 390.4375 C663.19996753 391.98151326 662.1165597 393.50339064 661 395 C660.47148438 395.76699219 659.94296875 396.53398438 659.3984375 397.32421875 C655.44966557 402.44718498 650.98779439 405.47044948 645.3125 408.375 C644.37881592 408.85767334 644.37881592 408.85767334 643.42626953 409.35009766 C631.82717938 414.87639634 619.78734908 415.47324559 607.1875 415.3125 C605.63769596 415.30247036 604.08789126 415.29254319 602.53808594 415.28271484 C589.96433067 415.16455433 577.49587148 414.42774114 565 413 C563.91235352 412.87987549 563.91235352 412.87987549 562.80273438 412.75732422 C553.11544162 411.66367252 543.54689846 409.94788193 534 408 C533.20271484 407.84192871 532.40542969 407.68385742 531.58398438 407.52099609 C516.71291055 404.53590564 502.50132491 400.13715238 488.19677734 395.12011719 C485.30949194 394.10844272 482.41582377 393.11830839 479.51953125 392.1328125 C462.9436911 386.39537904 446.98953841 379.17723385 431 372 C429.89897949 371.50612793 428.79795898 371.01225586 427.66357422 370.50341797 C416.39552424 365.43592798 405.18452183 360.24887647 394 355 C391.18810495 353.6862026 388.37530622 352.37434523 385.5625 351.0625 C384.29295287 350.47008612 383.02342005 349.87764157 381.75390625 349.28515625 C380.84511719 348.86105469 379.93632813 348.43695312 379 348 C382.76451434 346.74516189 383.79394931 347.4507531 387.41796875 348.9140625 C388.49941162 349.34299805 389.58085449 349.77193359 390.69506836 350.21386719 C391.8475708 350.67954102 393.00007324 351.14521484 394.1875 351.625 C403.39133184 355.25652079 412.5284099 358.61595065 422.01904297 361.40380859 C424.23220674 362.06988524 426.43032118 362.7755804 428.62890625 363.48828125 C438.67414346 366.74250056 448.70809021 369.61639991 459 372 C459.88187988 372.20512207 460.76375977 372.41024414 461.67236328 372.62158203 C495.68019974 380.50434678 537.42668208 389.90080727 569.37792969 371.02441406 C576.78030888 366.34946176 581.31253146 359.14493261 583.62109375 350.73828125 C585.00037086 340.77051572 584.85259609 329.66298256 582 320 C581.68160156 318.88753906 581.36320313 317.77507812 581.03515625 316.62890625 C571.20249863 284.81347198 549.97758111 257.30231185 529 232 C528.53625977 231.43571289 528.07251953 230.87142578 527.59472656 230.29003906 C521.46704637 222.83745505 515.03777298 215.72276478 508.38916016 208.73046875 C505.37850872 205.56153286 502.42820316 202.36596036 499.57421875 199.0546875 C495.75666675 194.65824879 491.68944459 190.54215686 487.5625 186.4375 C486.85029297 185.72142578 486.13808594 185.00535156 485.40429688 184.26757812 C481.33084402 180.20152482 477.15168156 176.33177761 472.79272461 172.57446289 C470.4168506 170.48784823 468.20533124 168.26493479 466 166 C462.46295945 162.42521664 458.85708791 159.02823268 455.0390625 155.7578125 C452.78280924 153.81276659 450.57952334 151.81595932 448.375 149.8125 C444.16250089 146.01863434 439.91052021 142.27345957 435.625 138.5625 C435.02993652 138.04212158 434.43487305 137.52174316 433.82177734 136.9855957 C430.99862555 134.55390279 428.36983817 132.57377546 425 131 C425.02320313 132.30453125 425.04640625 133.6090625 425.0703125 134.953125 C425.17434978 143.29851544 425.22839069 151.28743906 423.5703125 159.49609375 C422.58629672 165.54172492 422.22987002 171.65296537 421.78564453 177.75878906 C421.3759721 183.17148525 420.82421753 188.53462503 420.08642578 193.91308594 C419.01281906 201.82895267 418.02579218 209.7545207 417.0546875 217.68359375 C416.87825113 219.11947948 416.70174624 220.5553568 416.525177 221.9912262 C416.06749844 225.71456749 415.61073108 229.43801997 415.1541748 233.16149902 C414.68538118 236.98338668 414.21569635 240.8051648 413.74609375 244.62695312 C412.82987287 252.08453045 411.91461771 259.54222586 411 267 C388.50362841 267.30405822 366.00759688 267.53310817 343.50958538 267.67355824 C333.06257514 267.74051398 322.61684359 267.8317473 312.1706543 267.98071289 C303.0626632 268.11053318 293.95559826 268.1942133 284.84670764 268.22315043 C280.0256787 268.24006009 275.20729852 268.27961534 270.3871212 268.37449074 C265.84311382 268.4631998 261.30282673 268.48986453 256.75803566 268.47039986 C255.09667807 268.4739564 253.43518731 268.49955746 251.77458191 268.54967117 C239.58666876 268.89922188 239.58666876 268.89922188 235.25090432 265.71575332 C231.57872705 262.21389399 228.79500095 258.21361269 226 254 C224.98271662 252.69730515 223.95455137 251.40286681 222.90625 250.125 C221.71515625 248.578125 221.71515625 248.578125 220.5 247 C216.50183232 241.84795997 212.36500372 236.84445125 208.12280273 231.89233398 C204.82887255 228.02828926 201.67400179 224.07440588 198.5625 220.0625 C189.73275175 208.639955 189.73275175 208.639955 180 198 C178.49491801 197.89212462 176.98483684 197.85317568 175.47593689 197.84178162 C174.00981209 197.82709839 174.00981209 197.82709839 172.5140686 197.81211853 C171.43297821 197.80636307 170.35188782 197.8006076 169.23803711 197.79467773 C168.1064769 197.78477814 166.97491669 197.77487854 165.80906677 197.76467896 C162.04851411 197.73295406 158.28794879 197.70826325 154.52734375 197.68359375 C151.92802085 197.6630337 149.32870136 197.6420375 146.72938538 197.62062073 C140.57414586 197.57096381 134.41888822 197.52572404 128.26359993 197.48259836 C121.25763291 197.43326803 114.25171339 197.37833436 107.24579227 197.32291877 C92.83057277 197.20902308 78.41530692 197.10220064 64 197 C63.94417252 197.85264435 63.88834503 198.7052887 63.83082581 199.58377075 C63.2611738 207.95201423 62.50187647 216.27986799 61.58984375 224.6171875 C61.47290161 225.70394775 61.35595947 226.79070801 61.23547363 227.91040039 C60.80555498 231.89889647 60.37128643 235.88692272 59.9375 239.875 C58.968125 248.82625 57.99875 257.7775 57 267 C30.6 267 4.2 267 -23 267 C-21.85127122 250.91779705 -21.85127122 250.91779705 -21.01611328 243.40966797 C-20.92325043 242.5552713 -20.83038757 241.70087463 -20.73471069 240.82058716 C-20.43235086 238.04418125 -20.12635628 235.26818952 -19.8203125 232.4921875 C-19.60449066 230.51663745 -19.38890941 228.5410611 -19.17355347 226.56546021 C-18.60817288 221.38441275 -18.03974253 216.20370458 -17.47058105 211.02307129 C-16.78986719 204.82210699 -16.1126544 198.62075957 -15.43507004 192.41945267 C-14.88963416 187.42832903 -14.34343021 182.43729268 -13.79522705 177.44647217 C-12.86078621 168.93260682 -11.93218177 160.41844243 -11.04589844 151.89941406 C-10.97519323 151.22338449 -10.90448803 150.54735493 -10.83164024 149.85083961 C-10.51424404 146.81579639 -10.20028474 143.78049976 -9.89358521 140.74435425 C-9.78803314 139.73059723 -9.68248108 138.71684021 -9.57373047 137.67236328 C-9.48590302 136.80813751 -9.39807556 135.94391174 -9.30758667 135.05349731 C-9 133 -9 133 -8 131 C-6.82331473 130.99853344 -5.64662947 130.99706688 -4.43428707 130.99555588 C23.54991363 130.95978992 51.5340188 130.90345677 79.51812449 130.82207905 C82.96870692 130.81206258 86.41928982 130.80221829 89.86987305 130.79248047 C90.5567704 130.7905391 91.24366776 130.78859772 91.95138019 130.78659752 C103.04750111 130.75564641 114.14360139 130.73861617 125.23975731 130.72680578 C136.64058976 130.71435838 148.04129002 130.68648241 159.44205993 130.64538693 C165.83934026 130.62280956 172.23646727 130.6070871 178.63379097 130.60811615 C184.66421978 130.60886495 190.69431015 130.59082568 196.72465134 130.55883217 C198.92915107 130.55036496 201.13368891 130.54856143 203.33819771 130.55419731 C220.97410345 130.5932527 235.41931526 128.71996564 250.75 119.3125 C256.92935466 112.9614966 260.11357869 106.02643756 260.25 97.25 C260.14199347 89.84255232 259.06846787 84.71930138 253.8125 79.3125 C242.65423719 70.66667474 228.38981786 70.28573003 214.91064453 70.4675293 C213.16098988 70.47218767 211.41132771 70.47450813 209.66166687 70.47470093 C205.92886628 70.47941922 202.19657048 70.4991247 198.46390152 70.53067589 C192.5537331 70.57930188 186.64395382 70.58588295 180.73361206 70.58589172 C165.00189529 70.59228514 149.27047825 70.65313701 133.53900516 70.73882562 C123.17491465 70.79502257 112.81131494 70.82823267 102.44705856 70.81838924 C96.57840204 70.81468403 90.71145632 70.84735773 84.84312749 70.90784681 C81.18999199 70.93721072 77.53744691 70.9330742 73.8842411 70.91979599 C72.19840438 70.92035874 70.5125053 70.93452348 68.82692146 70.96372795 C59.53025253 71.11688351 52.95040682 70.73333216 45.85693169 63.95185566 C45.24414423 63.30774329 44.63135677 62.66363092 44 62 C43.06027344 61.20851563 42.12054688 60.41703125 41.15234375 59.6015625 C24.68497187 44.90581264 5.15451135 22.0182121 0 0 Z " fill="#1F1A17" transform="translate(309,489)"/>
<path d="M0 0 C2.80571419 0.03640633 5.61008968 0.04101789 8.41601562 0.04052734 C25.69243822 0.10558279 42.82284002 1.21829945 59.69726562 5.09912109 C61.45937378 5.49321167 61.45937378 5.49321167 63.25708008 5.89526367 C66.86716752 6.71392955 70.47031723 7.55791416 74.07226562 8.41162109 C75.17844238 8.67072266 76.28461914 8.92982422 77.42431641 9.19677734 C103.57918202 15.40129918 129.35265758 23.83902098 154.07226562 34.41162109 C154.72759277 34.68893066 155.38291992 34.96624023 156.05810547 35.25195312 C160.75671041 37.24562452 165.41756129 39.31784363 170.07226562 41.41162109 C170.96961426 41.81251953 171.86696289 42.21341797 172.79150391 42.62646484 C185.66784051 48.39013801 198.29032996 54.44941928 210.70507812 61.14794922 C213.14901086 62.45258988 215.60746193 63.72501272 218.07226562 64.98974609 C239.66752453 76.08938566 260.42378082 88.65383108 281.07226562 101.41162109 C281.65592896 101.77132996 282.23959229 102.13103882 282.84094238 102.50164795 C293.31567142 108.96516038 303.60103177 115.68053923 313.82226562 122.53662109 C315.23748085 123.48345895 316.65284523 124.43007392 318.06835938 125.37646484 C320.80819619 127.20857511 323.5469391 129.04230305 326.28491211 130.87719727 C328.65621676 132.46557365 331.03017558 134.04976064 333.40844727 135.62768555 C339.67040549 139.78416217 345.86613352 144.01984009 352.00976562 148.34912109 C353.7504524 149.57206013 355.49133774 150.79471658 357.23242188 152.01708984 C358.06273926 152.60022949 358.89305664 153.18336914 359.74853516 153.78417969 C362.80481612 155.92466812 365.87482987 158.04438569 368.94726562 160.16162109 C373.58544699 163.37220638 378.21397477 166.59579657 382.82226562 169.84912109 C383.43183105 170.27483398 384.04139648 170.70054687 384.66943359 171.13916016 C388.95729648 174.1816828 388.95729648 174.1816828 390.07226562 176.41162109 C375.17254318 176.59917037 360.27291279 176.73990058 345.37225819 176.82611847 C338.45227726 176.86722988 331.53303311 176.92319565 324.61352539 177.01513672 C317.92850891 177.10391909 311.24441353 177.14997233 304.55878258 177.17063904 C302.01556077 177.18535566 299.47237803 177.21409394 296.92948341 177.25746155 C272.01834592 177.66518942 272.01834592 177.66518942 261.07226562 168.41162109 C259.2117763 167.18106272 257.33867126 165.96910964 255.44726562 164.78662109 C254.67125 164.27873047 253.89523437 163.77083984 253.09570312 163.24755859 C248.51348699 160.46507593 243.79113538 157.95364827 239.07226562 155.41162109 C237.88598987 154.76918668 236.69979515 154.12660262 235.51367188 153.48388672 C209.66972752 139.50313117 183.4558438 126.20857223 156.1640625 115.25146484 C154.75694873 114.68651721 153.35201932 114.11610145 151.94921875 113.54052734 C110.2072965 96.4175875 46.69753073 74.52670431 1.72460938 90.85302734 C-11.41677082 96.46095322 -21.90566091 102.48737248 -28.06591797 115.88745117 C-30.71639932 122.72502692 -31.56443048 128.66687499 -31.42773438 135.97412109 C-31.41178223 137.53404785 -31.41178223 137.53404785 -31.39550781 139.12548828 C-31.16615949 148.58102623 -29.60141836 157.36258775 -26.92773438 166.41162109 C-26.60417969 167.51763672 -26.280625 168.62365234 -25.94726562 169.76318359 C-25.02274639 172.68390966 -24.00909748 175.54560235 -22.92773438 178.41162109 C-22.60546875 179.28947266 -22.28320312 180.16732422 -21.95117188 181.07177734 C-13.50192738 202.68117603 -0.84494711 222.93033397 13.07226562 241.41162109 C14.0767903 242.80420175 15.07738364 244.19963529 16.07226562 245.59912109 C16.73226562 246.52724609 17.39226562 247.45537109 18.07226562 248.41162109 C17.74226563 249.07162109 17.41226563 249.73162109 17.07226562 250.41162109 C12.14050512 245.71947144 7.87906073 240.80815624 3.82226562 235.34912109 C2.68261357 233.83406582 1.54197431 232.31975268 0.40039062 230.80615234 C-0.16099609 230.06059082 -0.72238281 229.3150293 -1.30078125 228.546875 C-3.19460967 226.06136729 -5.14195177 223.623739 -7.10083008 221.18945312 C-13.67183962 213.00440536 -19.5613777 204.39250124 -25.40380859 195.67773438 C-26.78686318 193.62109985 -28.18391824 191.57509832 -29.58789062 189.53271484 C-35.74093153 180.53064267 -41.29704578 171.2295797 -46.63134766 161.72119141 C-47.4521074 160.25897159 -48.2779777 158.79959872 -49.11083984 157.34423828 C-62.36267737 134.12908863 -71.67504561 108.78978517 -75.92773438 82.41162109 C-76.11207031 81.28884766 -76.29640625 80.16607422 -76.48632812 79.00927734 C-78.76189368 60.46241119 -76.60549686 40.89036864 -64.82226562 25.69677734 C-62.6098052 23.16444312 -60.31943967 20.77451066 -57.92773438 18.41162109 C-57.31285156 17.77482422 -56.69796875 17.13802734 -56.06445312 16.48193359 C-40.93167155 1.90002416 -19.92612185 -0.26581971 0 0 Z " fill="#E60375" transform="translate(293.927734375,295.58837890625)"/>
<path d="M0 0 C6.04841416 0.61095093 11.30083908 2.97791362 16.875 5.25 C25.4932457 8.69201849 34.07222262 11.76332111 42.97070312 14.38769531 C45.20356446 15.061422 47.42199701 15.77300201 49.640625 16.4921875 C59.6835523 19.74360421 69.7255813 22.57150103 80 25 C81.33395871 25.33082176 82.66765458 25.66273963 84 26 C84.495 27.98 84.495 27.98 85 30 C86.65 30.33 88.3 30.66 90 31 C89.60662881 33.28155293 89.08713789 34.86700007 87.8125 36.8125 C86 38 86 38 83.22607422 37.70654297 C80.12975199 37.028417 77.48147406 36.12304921 74.5703125 34.8828125 C73.53946533 34.44614258 72.50861816 34.00947266 71.4465332 33.55957031 C70.35042725 33.08616211 69.25432129 32.61275391 68.125 32.125 C66.41026489 31.39168457 66.41026489 31.39168457 64.66088867 30.64355469 C53.01364831 25.63229966 41.49162146 20.35666956 30 15 C28.56513868 14.33325906 27.13024622 13.66658511 25.6953125 13 C22.12713876 11.33987066 18.56349907 9.67014106 15 8 C12.18795574 6.68652282 9.37522907 5.37450993 6.5625 4.0625 C5.29295684 3.47007761 4.02342441 2.87763222 2.75390625 2.28515625 C1.84511719 1.86105469 0.93632813 1.43695312 0 1 C0 0.67 0 0.34 0 0 Z " fill="#1E1714" transform="translate(688,836)"/>
<path d="M0 0 C19.14 0 38.28 0 58 0 C58 0.33 58 0.66 58 1 C53.05 1.33 48.1 1.66 43 2 C45.31 2.33 47.62 2.66 50 3 C50 3.33 50 3.66 50 4 C37.13 4 24.26 4 11 4 C11 3.67 11 3.34 11 3 C12.98 3 14.96 3 17 3 C17 2.34 17 1.68 17 1 C11.39 1 5.78 1 0 1 C0 0.67 0 0.34 0 0 Z " fill="#151210" transform="translate(302,620)"/>
<path d="M0 0 C6.04823878 0.61093321 11.30110968 2.97753268 16.875 5.25 C26.15479153 8.96279747 35.42318175 12.15374283 45 15 C48.00908399 15.97538549 51.0044578 16.98365532 54 18 C50.27030925 19.05154277 46.87039505 19 43 19 C42.01 19.495 42.01 19.495 41 20 C38.18862917 18.80608815 35.48294882 17.54314134 32.75 16.1875 C31.04119561 15.35766156 29.33152176 14.52961171 27.62109375 13.703125 C26.71472168 13.26419922 25.80834961 12.82527344 24.87451172 12.37304688 C19.88621655 9.9903246 14.8494284 7.71514995 9.8125 5.4375 C8.83829102 4.99623779 7.86408203 4.55497559 6.86035156 4.1003418 C4.57416785 3.06555799 2.28741781 2.03205223 0 1 C0 0.67 0 0.34 0 0 Z " fill="#231C20" transform="translate(688,836)"/>
<path d="M0 0 C34.98 0 69.96 0 106 0 C106 0.66 106 1.32 106 2 C104.35 2.33 102.7 2.66 101 3 C101 2.34 101 1.68 101 1 C67.67 1 34.34 1 0 1 C0 0.67 0 0.34 0 0 Z " fill="#202122" transform="translate(875,489)"/>
<path d="M0 0 C0.33 0.66 0.66 1.32 1 2 C1.66 2 2.32 2 3 2 C5 6.875 5 6.875 5 8 C7.475 8.99 7.475 8.99 10 10 C9.01 10.495 9.01 10.495 8 11 C7.67 11.66 7.34 12.32 7 13 C7.66 13.66 8.32 14.32 9 15 C9.33 14.01 9.66 13.02 10 12 C10.66 12 11.32 12 12 12 C12.33 14.31 12.66 16.62 13 19 C12.01 19.33 11.02 19.66 10 20 C5.38 15.38 0.76 10.76 -4 6 C-2 1 -2 1 0 0 Z " fill="#191210" transform="translate(795,664)"/>
<path d="M0 0 C6.28260706 -0.23268915 11.88019467 0.59545452 18 2 C18 3.32 18 4.64 18 6 C13.14029802 7.68220453 8.83277186 6.43360995 4.1875 4.625 C1 3 1 3 0 0 Z " fill="#1D1816" transform="translate(730,854)"/>
<path d="M0 0 C3.63 0.66 7.26 1.32 11 2 C8.78065836 5.32901247 7.65316671 5.75023244 4 7 C4 7.66 4 8.32 4 9 C2.53932801 8.54917531 1.08151968 8.08906463 -0.375 7.625 C-1.18710937 7.36976563 -1.99921875 7.11453125 -2.8359375 6.8515625 C-5 6 -5 6 -7 4 C-6.34 4 -5.68 4 -5 4 C-4.67 3.34 -4.34 2.68 -4 2 C-3.01 2 -2.02 2 -1 2 C-0.67 1.34 -0.34 0.68 0 0 Z " fill="#1F1B19" transform="translate(749,857)"/>
<path d="M0 0 C3.625 -0.1875 3.625 -0.1875 7 0 C3.44984265 4.59506182 0.52289491 7.76454254 -5 10 C-5 9.34 -5 8.68 -5 8 C-5.66 7.67 -6.32 7.34 -7 7 C-7 6.34 -7 5.68 -7 5 C-6.21625 4.731875 -5.4325 4.46375 -4.625 4.1875 C-1.71885077 3.15185568 -1.71885077 3.15185568 0 0 Z " fill="#282121" transform="translate(961,886)"/>
<path d="M0 0 C7.09406894 0.58476056 14.01563899 1.63233995 21 3 C21 3.33 21 3.66 21 4 C13.82242235 5.01202288 7.18808741 4.88826175 0 4 C0 2.68 0 1.36 0 0 Z " fill="#F8F6F2" transform="translate(360,385)"/>
<path d="M0 0 C6.43681228 0.51085812 11.95942424 1.72942897 18 4 C18 4.33 18 4.66 18 5 C12.06 4.67 6.12 4.34 0 4 C0 2.68 0 1.36 0 0 Z " fill="#302A2E" transform="translate(864,897)"/>
<path d="M0 0 C0.33 0 0.66 0 1 0 C1.12375 1.134375 1.2475 2.26875 1.375 3.4375 C1.684375 5.2009375 1.684375 5.2009375 2 7 C2.66 7.33 3.32 7.66 4 8 C3.34 8.66 2.68 9.32 2 10 C0.7018576 12.2236068 0.7018576 12.2236068 1 16 C0.34 16 -0.32 16 -1 16 C-1.33 19.3 -1.66 22.6 -2 26 C-2.33 26 -2.66 26 -3 26 C-3.09362737 20.44477586 -2.79057189 15.12943007 -2.0625 9.625 C-1.97548828 8.91472656 -1.88847656 8.20445312 -1.79882812 7.47265625 C-1.13157685 2.2631537 -1.13157685 2.2631537 0 0 Z " fill="#373433" transform="translate(645,712)"/>
<path d="M0 0 C3.7910119 1.44950455 7.3874638 3.15172566 11 5 C9.68 5.33 8.36 5.66 7 6 C7 6.66 7 7.32 7 8 C3.62537285 7.45276317 1.91765 6.9451 -1 5 C-0.67 3.35 -0.34 1.7 0 0 Z " fill="#F8F7F6" transform="translate(553,463)"/>
<path d="M0 0 C0.33 0.66 0.66 1.32 1 2 C1.66 2 2.32 2 3 2 C3 3.98 3 5.96 3 8 C1.02 8.99 1.02 8.99 -1 10 C-1 10.66 -1 11.32 -1 12 C-2.32 11.34 -3.64 10.68 -5 10 C-4.01 7.36 -3.02 4.72 -2 2 C-1.34 2 -0.68 2 0 2 C0 1.34 0 0.68 0 0 Z " fill="#1B1410" transform="translate(363,742)"/>
<path d="M0 0 C4 0 4 0 5.37207031 1.28515625 C5.77006836 1.87167969 6.16806641 2.45820312 6.578125 3.0625 C7.01640625 3.69414063 7.4546875 4.32578125 7.90625 4.9765625 C8.57140625 5.97816406 8.57140625 5.97816406 9.25 7 C9.70890625 7.66773438 10.1678125 8.33546875 10.640625 9.0234375 C11.77249161 10.67407631 12.88784681 12.33601508 14 14 C13.67 14.66 13.34 15.32 13 16 C7.75072023 11.17004139 3.75158932 6.06025967 0 0 Z " fill="#DB2F6F" transform="translate(298,530)"/>
<path d="M0 0 C3.49490421 0.64720448 6.01166882 2.11263294 9 4 C9.66 4.33 10.32 4.66 11 5 C11.33333333 6.66666667 11.66666667 8.33333333 12 10 C12.66 10.33 13.32 10.66 14 11 C9.85878264 11 8.16365957 8.75914512 5.3125 6.0625 C4.80138672 5.59392578 4.29027344 5.12535156 3.76367188 4.64257812 C2.48385946 3.45503523 1.23873906 2.23032657 0 1 C0 0.67 0 0.34 0 0 Z " fill="#2A262A" transform="translate(344,542)"/>
<path d="M0 0 C6.04801071 0.54981916 11.30601106 1.90429574 17 4 C13.27030925 5.05154277 9.87039505 5 6 5 C5.01 5.495 5.01 5.495 4 6 C2.64664105 5.02727325 1.31337396 4.0260734 0 3 C0 2 0 1 0 0 Z " fill="#312C2C" transform="translate(725,850)"/>
<path d="M0 0 C0.66 0 1.32 0 2 0 C1.85756403 2.66688629 1.71113422 5.33345767 1.5625 8 C1.50352539 9.11568359 1.50352539 9.11568359 1.44335938 10.25390625 C1.16338273 15.20733918 0.66489429 20.08313469 0 25 C-0.33 25 -0.66 25 -1 25 C-1.144375 24.05125 -1.28875 23.1025 -1.4375 22.125 C-1.82935399 19.1065506 -1.82935399 19.1065506 -3 17 C-2.67 16.34 -2.34 15.68 -2 15 C-1.9310528 13.62657169 -1.91532292 12.24997898 -1.9375 10.875 C-1.958125 9.59625 -1.97875 8.3175 -2 7 C-1.34 6.67 -0.68 6.34 0 6 C0 4.02 0 2.04 0 0 Z " fill="#332A2D" transform="translate(726,683)"/>
<path d="M0 0 C3.67758005 3.28355362 5.81389118 6.62778237 8 11 C7.67 11.66 7.34 12.32 7 13 C5.35 12.67 3.7 12.34 2 12 C0.40861915 7.82262526 -0.21278058 4.46839215 0 0 Z " fill="#252324" transform="translate(936,738)"/>
<path d="M0 0 C5.02474293 0.61830949 9.24720494 2.12976776 13.875 4.0625 C14.56335938 4.34416016 15.25171875 4.62582031 15.9609375 4.91601562 C17.64289909 5.60515266 19.32177697 6.30180798 21 7 C21 7.99 21 8.98 21 10 C16.15713185 8.50640515 11.68649104 6.54966433 7.125 4.375 C6.43664062 4.05015625 5.74828125 3.7253125 5.0390625 3.390625 C3.35794781 2.59676528 1.67877079 1.79880442 0 1 C0 0.67 0 0.34 0 0 Z " fill="#5F5A5E" transform="translate(688,836)"/>
<path d="M0 0 C0.33 0.99 0.66 1.98 1 3 C1.66 3.33 2.32 3.66 3 4 C2.34 4 1.68 4 1 4 C1.66 6.97 2.32 9.94 3 13 C0.69 13 -1.62 13 -4 13 C-2.68 8.71 -1.36 4.42 0 0 Z " fill="#2A2525" transform="translate(893,837)"/>
<path d="M0 0 C2.64752004 2.57784846 4.94432065 4.91648098 7 8 C6.625 10.6875 6.625 10.6875 6 13 C1.77202073 10.18134715 1.77202073 10.18134715 0 8 C-0.53855713 5.14353521 -0.29847264 2.93498095 0 0 Z " fill="#F6F0F0" transform="translate(275,501)"/>
<path d="M0 0 C1.67889021 0.63525576 3.34416775 1.30686092 5 2 C6.65919896 2.36871088 8.3247643 2.71281674 10 3 C10 4.98 10 6.96 10 9 C8.18387512 8.04855402 6.37218919 7.08863067 4.5625 6.125 C3.55316406 5.59132813 2.54382813 5.05765625 1.50390625 4.5078125 C-1 3 -1 3 -2 1 C-1.34 0.67 -0.68 0.34 0 0 Z " fill="#F6EBE6" transform="translate(582,399)"/>
<path d="M0 0 C0.3125 2.8125 0.3125 2.8125 0 6 C-2.5 7.875 -2.5 7.875 -5 9 C-5.99 8.01 -6.98 7.02 -8 6 C-6.98565881 3.46414701 -6.34981128 2.21863205 -4 0.75 C-2 0 -2 0 0 0 Z " fill="#19130F" transform="translate(816,681)"/>
<path d="M0 0 C0 0.66 0 1.32 0 2 C1.65 2.33 3.3 2.66 5 3 C3.09598862 4.90401138 1.66574314 5.93520439 -1.046875 6.19921875 C-3.03233273 6.1886578 -5.0169914 6.09915043 -7 6 C-7 5.01 -7 4.02 -7 3 C-4.46815512 0.64276511 -3.52809907 0 0 0 Z " fill="#100B06" transform="translate(760,860)"/>
<path d="M0 0 C2.51699845 2.51699845 3.10964078 4.57554146 4 8 C3.625 10.375 3.625 10.375 3 12 C2.67 11.34 2.34 10.68 2 10 C-0.02463255 9.34786708 -0.02463255 9.34786708 -2 9 C-1.125 1.125 -1.125 1.125 0 0 Z " fill="#2E2A2F" transform="translate(972,810)"/>
<path d="M0 0 C2.25 0.125 2.25 0.125 5 1 C7.51605133 3.99206104 8.90851969 5.94797649 9.25 9.875 C9.1675 10.57625 9.085 11.2775 9 12 C5.74483572 8.83525695 2.67991207 5.67247209 0 2 C0 1.34 0 0.68 0 0 Z " fill="#272222" transform="translate(842,724)"/>
<path d="M0 0 C2.1385485 2.1385485 2.42655063 3.13275314 3 6 C-0.32534757 7.10844919 -2.62182575 6.84454356 -6 6 C-6 5.01 -6 4.02 -6 3 C-4.02 2.01 -2.04 1.02 0 0 Z " fill="#161313" transform="translate(821,528)"/>
<path d="M0 0 C0.86688859 2.89910284 1.0458562 5.11452831 0.66015625 8.109375 C0.56669922 8.86347656 0.47324219 9.61757813 0.37695312 10.39453125 C0.22129883 11.56048828 0.22129883 11.56048828 0.0625 12.75 C-0.03740234 13.54277344 -0.13730469 14.33554687 -0.24023438 15.15234375 C-0.48692871 17.10240371 -0.7425878 19.05132586 -1 21 C-1.33 21 -1.66 21 -2 21 C-2 18.36 -2 15.72 -2 13 C-2.66 13 -3.32 13 -4 13 C-4 11.35 -4 9.7 -4 8 C-3.01 8.495 -3.01 8.495 -2 9 C-1.67 7.68 -1.34 6.36 -1 5 C-1.66 4.67 -2.32 4.34 -3 4 C-2.01 2.68 -1.02 1.36 0 0 Z " fill="#40383A" transform="translate(743,527)"/>
<path d="M0 0 C0.33 0.66 0.66 1.32 1 2 C1.99 2 2.98 2 4 2 C5 5 5 5 5.375 7 C6.11138184 9.35642189 7.15846229 10.39866286 9 12 C8.01 12.66 7.02 13.32 6 14 C4.80285445 12.04754815 3.61751926 10.08785003 2.4375 8.125 C1.77621094 7.03445313 1.11492187 5.94390625 0.43359375 4.8203125 C-0.03949219 3.88960938 -0.51257813 2.95890625 -1 2 C-0.67 1.34 -0.34 0.68 0 0 Z " fill="#F2F2EF" transform="translate(283,498)"/>
<path d="M0 0 C3.96 0.33 7.92 0.66 12 1 C12 4 12 4 11 7 C6.89188572 5.55007731 3.53144334 3.54592427 0 1 C0 0.67 0 0.34 0 0 Z " fill="#F5E5E0" transform="translate(567,392)"/>
<path d="M0 0 C0 1.32 0 2.64 0 4 C-4.38585329 4.70173653 -8.55790643 5.10834375 -13 5 C-12 3 -12 3 -9.78515625 2.1484375 C-8.88667969 1.89320313 -7.98820313 1.63796875 -7.0625 1.375 C-6.16660156 1.11460937 -5.27070312 0.85421875 -4.34765625 0.5859375 C-2 0 -2 0 0 0 Z " fill="#252329" transform="translate(871,865)"/>
<path d="M0 0 C1.65 0 3.3 0 5 0 C5.33 0.66 5.66 1.32 6 2 C5.34 2 4.68 2 4 2 C3.896875 2.639375 3.79375 3.27875 3.6875 3.9375 C3.460625 4.618125 3.23375 5.29875 3 6 C1 6.66666667 -1 7.33333333 -3 8 C-2.67 6.68 -2.34 5.36 -2 4 C-1.34 4 -0.68 4 0 4 C0 2.68 0 1.36 0 0 Z " fill="#14100F" transform="translate(889,850)"/>
<path d="M0 0 C1.32 0.66 2.64 1.32 4 2 C4.1875 4.375 4.1875 4.375 4 7 C3.01 7.66 2.02 8.32 1 9 C0.27034634 11.56282742 0.27034634 11.56282742 0 14 C-0.33 14 -0.66 14 -1 14 C-1.027193 12.41676312 -1.04648306 10.83338938 -1.0625 9.25 C-1.07410156 8.36828125 -1.08570313 7.4865625 -1.09765625 6.578125 C-1.00826198 4.2181162 -0.66912821 2.25501476 0 0 Z " fill="#171111" transform="translate(299,642)"/>
<path d="M0 0 C-1 3 -1 3 -3 4 C-3 4.99 -3 5.98 -3 7 C-3.66 7 -4.32 7 -5 7 C-5.33 7.66 -5.66 8.32 -6 9 C-6.66 8.34 -7.32 7.68 -8 7 C-7.76306451 4.5516666 -7.16353221 3.21804295 -5.6875 1.25 C-4 0 -4 0 0 0 Z " fill="#171214" transform="translate(778,565)"/>
<path d="M0 0 C0.99 0 1.98 0 3 0 C3.99 2.97 4.98 5.94 6 9 C4.35 9 2.7 9 1 9 C1 8.01 1 7.02 1 6 C0.34 5.67 -0.32 5.34 -1 5 C-0.67 3.35 -0.34 1.7 0 0 Z " fill="#343132" transform="translate(963,790)"/>
<path d="M0 0 C1.14926266 0.95421808 2.29430541 1.91352045 3.4375 2.875 C4.07558594 3.40867187 4.71367188 3.94234375 5.37109375 4.4921875 C7 6 7 6 8 8 C7.236875 7.814375 6.47375 7.62875 5.6875 7.4375 C2.91032625 6.77180827 2.91032625 6.77180827 0 8 C0 5.36 0 2.72 0 0 Z " fill="#272425" transform="translate(851,637)"/>
<path d="M0 0 C0.66 1.32 1.32 2.64 2 4 C1.06027344 4.09087891 1.06027344 4.09087891 0.1015625 4.18359375 C-0.71570313 4.26738281 -1.53296875 4.35117187 -2.375 4.4375 C-3.18710937 4.51871094 -3.99921875 4.59992188 -4.8359375 4.68359375 C-7.04272805 4.89090114 -7.04272805 4.89090114 -9 6 C-9.66 5.34 -10.32 4.68 -11 4 C-10.67 3.34 -10.34 2.68 -10 2 C-7.4375 1.375 -7.4375 1.375 -5 1 C-4.67 1.99 -4.34 2.98 -4 4 C-3.34 4 -2.68 4 -2 4 C-1.34 2.68 -0.68 1.36 0 0 Z " fill="#120E0D" transform="translate(854,506)"/>
<path d="M0 0 C0.70640625 0.28746094 1.4128125 0.57492187 2.140625 0.87109375 C2.67171875 1.09925781 3.2028125 1.32742188 3.75 1.5625 C3.42 2.5525 3.09 3.5425 2.75 4.5625 C1.28932801 4.11167531 -0.16848032 3.65156463 -1.625 3.1875 C-2.43710937 2.93226563 -3.24921875 2.67703125 -4.0859375 2.4140625 C-6.25 1.5625 -6.25 1.5625 -8.25 -0.4375 C-4.94564916 -1.56127697 -3.1993138 -1.33304742 0 0 Z " fill="#F7E7E3" transform="translate(476.25,339.4375)"/>
<path d="M0 0 C3.26008643 3.16952847 6.22237877 6.39937989 9 10 C7.68 11.32 6.36 12.64 5 14 C4.87625 13.2575 4.7525 12.515 4.625 11.75 C3.77764014 8.02161661 2.7058547 5.7058547 0 3 C0 2.01 0 1.02 0 0 Z " fill="#252323" transform="translate(612,712)"/>
<path d="M0 0 C7.92 0 15.84 0 24 0 C24 0.33 24 0.66 24 1 C23.12263184 1.03758423 23.12263184 1.03758423 22.22753906 1.07592773 C19.56815529 1.19222962 16.90909597 1.31480067 14.25 1.4375 C12.86941406 1.49647461 12.86941406 1.49647461 11.4609375 1.55664062 C10.57148438 1.59853516 9.68203125 1.64042969 8.765625 1.68359375 C7.94868164 1.72025146 7.13173828 1.75690918 6.29003906 1.79467773 C4.0965577 1.99134275 2.11603587 2.40300594 0 3 C0 2.01 0 1.02 0 0 Z " fill="#110F0F" transform="translate(310,490)"/>
<path d="M0 0 C2.01822917 0.06510417 4.03645833 0.13020833 6.0546875 0.1953125 C6.0546875 3.1953125 6.0546875 3.1953125 5.0546875 5.1953125 C2.0846875 4.2053125 -0.8853125 3.2153125 -3.9453125 2.1953125 C-1.9453125 0.1953125 -1.9453125 0.1953125 0 0 Z " fill="#2B2525" transform="translate(756.9453125,864.8046875)"/>
<path d="M0 0 C0.78375 0.04125 1.5675 0.0825 2.375 0.125 C2.705 1.775 3.035 3.425 3.375 5.125 C2.385 5.785 1.395 6.445 0.375 7.125 C-1.275 5.475 -2.925 3.825 -4.625 2.125 C-2.625 0.125 -2.625 0.125 0 0 Z " fill="#181410" transform="translate(859.625,735.875)"/>
<path d="M0 0 C6.15234375 -0.09765625 6.15234375 -0.09765625 8 0 C8.33 0.33 8.66 0.66 9 1 C10.51469448 1.23192865 12.03754562 1.41215238 13.5625 1.5625 C14.38878906 1.64628906 15.21507812 1.73007812 16.06640625 1.81640625 C16.70449219 1.87699219 17.34257812 1.93757813 18 2 C18 2.99 18 3.98 18 5 C9.09 3.02 9.09 3.02 0 1 C0 0.67 0 0.34 0 0 Z " fill="#F2DFD8" transform="translate(372,305)"/>
<path d="M0 0 C0.99 0.33 1.98 0.66 3 1 C2.67 2.65 2.34 4.3 2 6 C1.34 6 0.68 6 0 6 C-0.33 6.66 -0.66 7.32 -1 8 C-3 5 -3 5 -3 2 C-2.01 2 -1.02 2 0 2 C0 1.34 0 0.68 0 0 Z " fill="#16110F" transform="translate(874,760)"/>
<path d="M0 0 C1.32 0.33 2.64 0.66 4 1 C0.87378374 4.39417765 -1.56541027 6.6062718 -6 8 C-6 7.34 -6 6.68 -6 6 C-5.34 6 -4.68 6 -4 6 C-3.67 5.01 -3.34 4.02 -3 3 C-2.34 3 -1.68 3 -1 3 C-0.67 2.01 -0.34 1.02 0 0 Z " fill="#25201E" transform="translate(941,514)"/>
<path d="M0 0 C0.33 0.66 0.66 1.32 1 2 C-3.17737474 3.59138085 -6.53160785 4.21278058 -11 4 C-10.67 3.01 -10.34 2.02 -10 1 C-6.52674819 -0.1577506 -3.63932552 -0.06866652 0 0 Z " fill="#F7F5F4" transform="translate(261,298)"/>
<path d="M0 0 C0.33 1.32 0.66 2.64 1 4 C0.01 4.495 0.01 4.495 -1 5 C-1.65555119 7.52733235 -1.65555119 7.52733235 -2 10 C-3.65 9.67 -5.3 9.34 -7 9 C-6.57847656 8.51789062 -6.15695312 8.03578125 -5.72265625 7.5390625 C-5.17480469 6.90742187 -4.62695312 6.27578125 -4.0625 5.625 C-3.51722656 4.99851562 -2.97195313 4.37203125 -2.41015625 3.7265625 C-0.93041376 2.04367666 -0.93041376 2.04367666 0 0 Z " fill="#2B292D" transform="translate(888,850)"/>
<path d="M0 0 C2 3 2 3 1.625 6.1875 C1.41875 7.115625 1.2125 8.04375 1 9 C0.01 8.67 -0.98 8.34 -2 8 C-2.125 5.125 -2.125 5.125 -2 2 C-1.34 1.34 -0.68 0.68 0 0 Z " fill="#181310" transform="translate(595,693)"/>
<path d="M0 0 C0.33 0 0.66 0 1 0 C1 1.98 1 3.96 1 6 C1.66 6 2.32 6 3 6 C2.11223998 9.69900008 1.05418136 13.34550461 0 17 C-0.33 17 -0.66 17 -1 17 C-0.67 11.39 -0.34 5.78 0 0 Z " fill="#535250" transform="translate(649,666)"/>
<path d="M0 0 C0.66 0.66 1.32 1.32 2 2 C1.625 4.625 1.625 4.625 1 7 C-0.98 7 -2.96 7 -5 7 C-5 4 -5 4 -3 2 C-2.01 2.33 -1.02 2.66 0 3 C0 2.01 0 1.02 0 0 Z " fill="#1A130E" transform="translate(896,543)"/>
<path d="M0 0 C1.98 0 3.96 0 6 0 C6 0.99 6 1.98 6 3 C6.66 3 7.32 3 8 3 C8 3.66 8 4.32 8 5 C8.99 5 9.98 5 11 5 C10.67 5.99 10.34 6.98 10 8 C8.33055479 6.85821872 6.6645052 5.71147095 5 4.5625 C4.071875 3.92441406 3.14375 3.28632813 2.1875 2.62890625 C1.465625 2.09136719 0.74375 1.55382812 0 1 C0 0.67 0 0.34 0 0 Z " fill="#F8E5DA" transform="translate(669,460)"/>
<path d="M0 0 C0.99 0.495 0.99 0.495 2 1 C1.01 1.495 1.01 1.495 0 2 C0 1.34 0 0.68 0 0 Z M-4 1 C-2.68 1.66 -1.36 2.32 0 3 C-1.8125 5 -1.8125 5 -4 7 C-4.99 7 -5.98 7 -7 7 C-6.67 5.68 -6.34 4.36 -6 3 C-5.34 3 -4.68 3 -4 3 C-4 2.34 -4 1.68 -4 1 Z " fill="#17110D" transform="translate(875,864)"/>
<path d="M0 0 C1.32 0.33 2.64 0.66 4 1 C5.125 4.75 5.125 4.75 4 7 C4.66 7 5.32 7 6 7 C5.67 7.66 5.34 8.32 5 9 C1.7457985 6.16569547 0.4793247 4.31392226 0 0 Z " fill="#1A1510" transform="translate(928,735)"/>
<path d="M0 0 C0.99 0.33 1.98 0.66 3 1 C3 1.66 3 2.32 3 3 C3.66 3.33 4.32 3.66 5 4 C4.34 4 3.68 4 3 4 C2.67 4.99 2.34 5.98 2 7 C0.68 6.01 -0.64 5.02 -2 4 C-1.34 2.68 -0.68 1.36 0 0 Z " fill="#282223" transform="translate(563,563)"/>
<path d="M0 0 C2.0625 0.4375 2.0625 0.4375 4 1 C2.8141763 4.37503669 1.72426311 6.64722731 -1 9 C-1.09765625 2.84765625 -1.09765625 2.84765625 -1 1 C-0.67 0.67 -0.34 0.34 0 0 Z " fill="#17120F" transform="translate(666,527)"/>
<path d="M0 0 C1.875 0.3125 1.875 0.3125 4 1 C4.66 1.99 5.32 2.98 6 4 C5.67 4.99 5.34 5.98 5 7 C4.01 7 3.02 7 2 7 C0.5393715 4.35261084 0 3.10551666 0 0 Z " fill="#161010" transform="translate(316,501)"/>
<path d="M0 0 C4.29 0.66 8.58 1.32 13 2 C13 2.33 13 2.66 13 3 C11.39679026 3.19551338 9.79237014 3.38111983 8.1875 3.5625 C7.29417969 3.66691406 6.40085937 3.77132813 5.48046875 3.87890625 C3 4 3 4 0 3 C0 2.01 0 1.02 0 0 Z " fill="#F8ECE6" transform="translate(368,386)"/>
<path d="M0 0 C0.33 0.66 0.66 1.32 1 2 C2.32 1.34 3.64 0.68 5 0 C5 0.66 5 1.32 5 2 C6.32 2 7.64 2 9 2 C9 2.66 9 3.32 9 4 C3.58461538 5.23076923 3.58461538 5.23076923 0.625 4.0625 C0.08875 3.711875 -0.4475 3.36125 -1 3 C-0.67 2.01 -0.34 1.02 0 0 Z " fill="#191410" transform="translate(850,643)"/>
<path d="M0 0 C0 3.99191204 -1.25498212 5.18079244 -4 8 C-6.75 8.8125 -6.75 8.8125 -9 9 C-6 6 -3 3 0 0 Z " fill="#221F23" transform="translate(798,545)"/>
<path d="M0 0 C0.66 0.33 1.32 0.66 2 1 C2.625 3.5625 2.625 3.5625 3 6 C1.68 6.33 0.36 6.66 -1 7 C-1.625 4.625 -1.625 4.625 -2 2 C-1.34 1.34 -0.68 0.68 0 0 Z " fill="#1A140F" transform="translate(906,536)"/>
<path d="M0 0 C4.75 0.75 4.75 0.75 7 3 C6.34 3 5.68 3 5 3 C5.33 3.99 5.66 4.98 6 6 C4.02 5.34 2.04 4.68 0 4 C0 2.68 0 1.36 0 0 Z " fill="#F7F5F2" transform="translate(464,417)"/>
<path d="M0 0 C0.99 0.66 1.98 1.32 3 2 C0.69 3.65 -1.62 5.3 -4 7 C-4.33 6.34 -4.66 5.68 -5 5 C-4.25 2.9375 -4.25 2.9375 -3 1 C-2.01 0.67 -1.02 0.34 0 0 Z " fill="#F6F2EF" transform="translate(244,304)"/>
<path d="M0 0 C0.99 0 1.98 0 3 0 C2.67 5.28 2.34 10.56 2 16 C1.67 16 1.34 16 1 16 C0.77695559 14.25181409 0.5721355 12.50129677 0.375 10.75 C0.25898437 9.77546875 0.14296875 8.8009375 0.0234375 7.796875 C-0.00112537 4.86570607 0.4687283 3.45471036 2 1 C1.34 0.67 0.68 0.34 0 0 Z " fill="#4A4349" transform="translate(728,660)"/>
<path d="M0 0 C2.625 1.4375 2.625 1.4375 5 3 C4.34 4.32 3.68 5.64 3 7 C1.35 5.02 -0.3 3.04 -2 1 C-1.34 0.67 -0.68 0.34 0 0 Z " fill="#373132" transform="translate(783,659)"/>
<path d="M0 0 C0.99 0.33 1.98 0.66 3 1 C3.6875 3.0625 3.6875 3.0625 4 5 C0 5 0 5 -3 4 C-2.01 2.68 -1.02 1.36 0 0 Z " fill="#130E0E" transform="translate(788,554)"/>
<path d="M0 0 C1.8125 0.1875 1.8125 0.1875 4 1 C5.75 3.5625 5.75 3.5625 7 6 C6.34 6 5.68 6 5 6 C4.67 6.99 4.34 7.98 4 9 C3.87625 8.360625 3.7525 7.72125 3.625 7.0625 C3.315625 6.0415625 3.315625 6.0415625 3 5 C2.34 4.67 1.68 4.34 1 4 C0.375 1.9375 0.375 1.9375 0 0 Z " fill="#252122" transform="translate(633,524)"/>
<path d="M0 0 C-0.66 1.65 -1.32 3.3 -2 5 C-2.99 5 -3.98 5 -5 5 C-5 4.34 -5 3.68 -5 3 C-6.32 2.67 -7.64 2.34 -9 2 C-2.25 0 -2.25 0 0 0 Z " fill="#F3EDE5" transform="translate(301,385)"/>
<path d="M0 0 C0.99 0.33 1.98 0.66 3 1 C1.35086452 3.69069473 0.47370578 4.83824681 -2.5625 5.875 C-3.366875 5.91625 -4.17125 5.9575 -5 6 C-5.66 5.34 -6.32 4.68 -7 4 C-6.34 4 -5.68 4 -5 4 C-4.67 3.34 -4.34 2.68 -4 2 C-3.01 2 -2.02 2 -1 2 C-0.67 1.34 -0.34 0.68 0 0 Z " fill="#2C2724" transform="translate(749,857)"/>
<path d="M0 0 C1.485 0.99 1.485 0.99 3 2 C3.1875 4.625 3.1875 4.625 3 7 C2.67 7 2.34 7 2 7 C1.67 8.65 1.34 10.3 1 12 C0.67 12 0.34 12 0 12 C0 8.04 0 4.08 0 0 Z " fill="#221B24" transform="translate(368,700)"/>
<path d="M0 0 C2.64752004 2.57784846 4.94432065 4.91648098 7 8 C5.35 8 3.7 8 2 8 C0.74335022 5.09399739 0 3.20395416 0 0 Z " fill="#262227" transform="translate(596,693)"/>
<path d="M0 0 C0.99 0.33 1.98 0.66 3 1 C2.34 1 1.68 1 1 1 C1.99 2.98 2.98 4.96 4 7 C2.35 7.66 0.7 8.32 -1 9 C-0.67 6.03 -0.34 3.06 0 0 Z " fill="#383331" transform="translate(577,668)"/>
<path d="M0 0 C1.875 0.3125 1.875 0.3125 4 1 C4.66 1.99 5.32 2.98 6 4 C5.34 4 4.68 4 4 4 C4 4.66 4 5.32 4 6 C2 5 2 5 -1 3 C-0.67 2.01 -0.34 1.02 0 0 Z " fill="#272423" transform="translate(863,651)"/>
<path d="M0 0 C0.66 0.33 1.32 0.66 2 1 C1.67 2.32 1.34 3.64 1 5 C1.66 5 2.32 5 3 5 C2.67 5.99 2.34 6.98 2 8 C0 6.75 0 6.75 -2 5 C-2 3.68 -2 2.36 -2 1 C-1.34 0.67 -0.68 0.34 0 0 Z " fill="#251E1E" transform="translate(748,624)"/>
<path d="M0 0 C0.33 0 0.66 0 1 0 C1.33 1.65 1.66 3.3 2 5 C2.99 5.33 3.98 5.66 5 6 C3.625 8 3.625 8 2 10 C1.34 10 0.68 10 0 10 C0 6.7 0 3.4 0 0 Z " fill="#E1DFDE" transform="translate(736,586)"/>
<path d="M0 0 C1.65 0 3.3 0 5 0 C4.01 1.485 4.01 1.485 3 3 C2.67 3.99 2.34 4.98 2 6 C-0.0625 6.6875 -0.0625 6.6875 -2 7 C-1.34 4.69 -0.68 2.38 0 0 Z " fill="#16110F" transform="translate(323,505)"/>
<path d="M0 0 C1.98 0.66 3.96 1.32 6 2 C6 2.66 6 3.32 6 4 C5.34 4 4.68 4 4 4 C4 4.66 4 5.32 4 6 C2.68 5.34 1.36 4.68 0 4 C0 2.68 0 1.36 0 0 Z " fill="#F5F0EB" transform="translate(529,449)"/>
<path d="M0 0 C2.64 0.33 5.28 0.66 8 1 C6.25 2.5625 6.25 2.5625 4 4 C1.75 3.6875 1.75 3.6875 0 3 C0 2.01 0 1.02 0 0 Z " fill="#2A2627" transform="translate(772,863)"/>
<path d="M0 0 C0.66 0 1.32 0 2 0 C1.67 3.96 1.34 7.92 1 12 C0.67 12 0.34 12 0 12 C-0.144375 11.05125 -0.28875 10.1025 -0.4375 9.125 C-0.82935399 6.1065506 -0.82935399 6.1065506 -2 4 C-1.0625 1.875 -1.0625 1.875 0 0 Z " fill="#443C42" transform="translate(725,696)"/>
<path d="M0 0 C-0.33 2.31 -0.66 4.62 -1 7 C-1.66 6.67 -2.32 6.34 -3 6 C-3 4.68 -3 3.36 -3 2 C-5.31 2 -7.62 2 -10 2 C-10 1.67 -10 1.34 -10 1 C-2.25 0 -2.25 0 0 0 Z " fill="#27221C" transform="translate(493,682)"/>
<path d="M0 0 C1.98 0 3.96 0 6 0 C5.67 1.98 5.34 3.96 5 6 C3.02 5.01 1.04 4.02 -1 3 C-0.67 2.01 -0.34 1.02 0 0 Z " fill="#F7F0ED" transform="translate(657,449)"/>
<path d="M0 0 C4.7517398 0.43197635 6.92000054 1.32769295 10 5 C9.67 5.66 9.34 6.32 9 7 C7.4972763 6.02501855 5.99788037 5.04490611 4.5 4.0625 C3.6646875 3.51722656 2.829375 2.97195313 1.96875 2.41015625 C1.3190625 1.94480469 0.669375 1.47945313 0 1 C0 0.67 0 0.34 0 0 Z " fill="#F5E8E0" transform="translate(626,430)"/>
<path d="M0 0 C3 1 3 1 4.1875 3.0625 C4.455625 3.701875 4.72375 4.34125 5 5 C4.34 5 3.68 5 3 5 C2.67 5.66 2.34 6.32 2 7 C1.01 5.02 0.02 3.04 -1 1 C-0.67 0.67 -0.34 0.34 0 0 Z " fill="#2A2629" transform="translate(931,732)"/>
<path d="M0 0 C1.9375 0.75 1.9375 0.75 4 2 C4.75 4.125 4.75 4.125 5 6 C3.125 5.75 3.125 5.75 1 5 C-0.25 2.9375 -0.25 2.9375 -1 1 C-0.67 0.67 -0.34 0.34 0 0 Z " fill="#141313" transform="translate(833,621)"/>
<path d="M0 0 C1.0625 1.875 1.0625 1.875 2 4 C1.67 4.66 1.34 5.32 1 6 C-0.65 6 -2.3 6 -4 6 C-2.84826645 3.53199953 -1.95216435 1.95216435 0 0 Z " fill="#292123" transform="translate(644,607)"/>
<path d="M0 0 C1.65 0.33 3.3 0.66 5 1 C3.25 3 3.25 3 1 5 C-0.32 5 -1.64 5 -3 5 C-2.67 4.01 -2.34 3.02 -2 2 C-1.34 2.33 -0.68 2.66 0 3 C0 2.01 0 1.02 0 0 Z " fill="#252020" transform="translate(915,532)"/>
<path d="M0 0 C0.66 0 1.32 0 2 0 C2 0.66 2 1.32 2 2 C2.639375 2.103125 3.27875 2.20625 3.9375 2.3125 C4.618125 2.539375 5.29875 2.76625 6 3 C6.33 3.99 6.66 4.98 7 6 C5.68 6 4.36 6 3 6 C2.01 4.02 1.02 2.04 0 0 Z " fill="#F4F0EC" transform="translate(297,523)"/>
<path d="M0 0 C4.75 0.75 4.75 0.75 7 3 C5.68 3 4.36 3 3 3 C2.67 3.66 2.34 4.32 2 5 C1.01 4.34 0.02 3.68 -1 3 C-0.67 2.01 -0.34 1.02 0 0 Z " fill="#F3F1F0" transform="translate(557,466)"/>
<path d="M0 0 C1.9375 0.6875 1.9375 0.6875 4 2 C4.75 4.625 4.75 4.625 5 7 C4.01 7 3.02 7 2 7 C0.25 5.1875 0.25 5.1875 -1 3 C-0.67 2.01 -0.34 1.02 0 0 Z " fill="#F8F3F2" transform="translate(497,432)"/>
<path d="M0 0 C2.475 0.99 2.475 0.99 5 2 C3.68 3.32 2.36 4.64 1 6 C0.01 5.34 -0.98 4.68 -2 4 C-1.34 2.68 -0.68 1.36 0 0 Z " fill="#FAF6F2" transform="translate(483,425)"/>
<path d="M0 0 C2.1875 -0.3125 2.1875 -0.3125 5 0 C7.8125 2.5 7.8125 2.5 10 5 C5.75354935 5 3.61475228 3.18249194 0 1 C0 0.67 0 0.34 0 0 Z " fill="#F3DCD7" transform="translate(592,408)"/>
<path d="M0 0 C6.0546875 -0.1953125 6.0546875 -0.1953125 8 0 C8.66 0.66 9.32 1.32 10 2 C8.02 2.33 6.04 2.66 4 3 C4 2.34 4 1.68 4 1 C3.01 1.33 2.02 1.66 1 2 C0.67 1.34 0.34 0.68 0 0 Z " fill="#0A0606" transform="translate(730,854)"/>
<path d="M0 0 C2.475 0.99 2.475 0.99 5 2 C4.34 3.65 3.68 5.3 3 7 C2.01 6.34 1.02 5.68 0 5 C-0.1875 2.375 -0.1875 2.375 0 0 Z " fill="#16120F" transform="translate(289,734)"/>
<path d="M0 0 C0.66 0 1.32 0 2 0 C2.66 1.65 3.32 3.3 4 5 C2.35 5.33 0.7 5.66 -1 6 C-0.67 4.02 -0.34 2.04 0 0 Z " fill="#181510" transform="translate(873,666)"/>
<path d="M0 0 C1.98 0 3.96 0 6 0 C6 1.98 6 3.96 6 6 C3.97945196 4.35830472 1.97956942 2.69088222 0 1 C0 0.67 0 0.34 0 0 Z " fill="#272224" transform="translate(775,654)"/>
<path d="M0 0 C1.32 1.32 2.64 2.64 4 4 C2 6 2 6 -0.625 6.125 C-1.40875 6.08375 -2.1925 6.0425 -3 6 C-2 3 -2 3 0 0 Z " fill="#F9EEF0" transform="translate(284,513)"/>
<path d="M0 0 C1.32 1.65 2.64 3.3 4 5 C3.67 5.66 3.34 6.32 3 7 C0.9375 7.625 0.9375 7.625 -1 8 C-1 5.16032769 -0.59732819 2.76264289 0 0 Z " fill="#F8EBEC" transform="translate(250,462)"/>
<path d="M0 0 C0 1.65 0 3.3 0 5 C-4.875 3.25 -4.875 3.25 -6 1 C-3 0 -3 0 0 0 Z " fill="#F6EAE5" transform="translate(626,425)"/>
<path d="M0 0 C2.64 0 5.28 0 8 0 C8.33 0.66 8.66 1.32 9 2 C7.02 2.99 7.02 2.99 5 4 C3.35 2.68 1.7 1.36 0 0 Z " fill="#F8ECE5" transform="translate(531,371)"/>
<path d="M0 0 C5.53846154 -0.36923077 5.53846154 -0.36923077 7.875 1.5 C8.24625 1.995 8.6175 2.49 9 3 C6 4 6 4 2.8125 2.5625 C1.884375 2.046875 0.95625 1.53125 0 1 C0 0.67 0 0.34 0 0 Z " fill="#F5E3DD" transform="translate(501,355)"/>
<path d="M0 0 C0.66 0 1.32 0 2 0 C2.33 0.66 2.66 1.32 3 2 C5.52733235 2.65555119 5.52733235 2.65555119 8 3 C8 3.66 8 4.32 8 5 C3.545 4.01 3.545 4.01 -1 3 C-0.67 2.01 -0.34 1.02 0 0 Z " fill="#362E2E" transform="translate(797,881)"/>
<path d="M0 0 C0.66 1.32 1.32 2.64 2 4 C1.34 4 0.68 4 0 4 C0 4.99 0 5.98 0 7 C-0.99 6.67 -1.98 6.34 -3 6 C-2.625 3.5625 -2.625 3.5625 -2 1 C-1.34 0.67 -0.68 0.34 0 0 Z " fill="#181110" transform="translate(870,753)"/>
<path d="M0 0 C1.32 0.66 2.64 1.32 4 2 C3.34 3.32 2.68 4.64 2 6 C1.01 5.67 0.02 5.34 -1 5 C-0.67 3.35 -0.34 1.7 0 0 Z " fill="#191211" transform="translate(540,742)"/>
<path d="M0 0 C2.12508244 3.18762365 2.5020163 5.26512223 3 9 C1.68 8.01 0.36 7.02 -1 6 C-0.67 4.02 -0.34 2.04 0 0 Z " fill="#292321" transform="translate(813,686)"/>
<path d="M0 0 C1.8125 0.125 1.8125 0.125 4 1 C5.75 4.0625 5.75 4.0625 7 7 C5.68 7 4.36 7 3 7 C2.814375 5.824375 2.814375 5.824375 2.625 4.625 C2.20882007 1.85942178 2.20882007 1.85942178 0 0 Z " fill="#181110" transform="translate(784,659)"/>
<path d="M0 0 C2.50037734 2.17424117 3.43628586 3.73045798 4 7 C2.68 6.67 1.36 6.34 0 6 C-1.125 2.25 -1.125 2.25 0 0 Z " fill="#3D393C" transform="translate(643,535)"/>
<path d="M0 0 C0.96661363 3.12180401 0.98988909 5.52083795 0.5625 8.75 C0.40974609 9.94882812 0.40974609 9.94882812 0.25390625 11.171875 C0.12822266 12.07679688 0.12822266 12.07679688 0 13 C-0.33 13 -0.66 13 -1 13 C-1 10.36 -1 7.72 -1 5 C-1.66 4.67 -2.32 4.34 -3 4 C-2.01 2.68 -1.02 1.36 0 0 Z " fill="#50484A" transform="translate(743,527)"/>
<path d="M0 0 C0.66 0.33 1.32 0.66 2 1 C0.8125 3.5 0.8125 3.5 -1 6 C-3.6875 6.3125 -3.6875 6.3125 -6 6 C-4 4 -2 2 0 0 Z " fill="#221F23" transform="translate(825,523)"/>
<path d="M0 0 C1.2065625 0.0309375 1.2065625 0.0309375 2.4375 0.0625 C2.7675 1.7125 3.0975 3.3625 3.4375 5.0625 C0.52232708 3.98848892 -1.34060176 3.28439824 -3.5625 1.0625 C-2.5625 0.0625 -2.5625 0.0625 0 0 Z " fill="#F8E9E4" transform="translate(548.5625,377.9375)"/>
<path d="M0 0 C1.65 0.33 3.3 0.66 5 1 C4.67 2.32 4.34 3.64 4 5 C2.02 4.34 0.04 3.68 -2 3 C-1.34 2.67 -0.68 2.34 0 2 C0 1.34 0 0.68 0 0 Z " fill="#F9EBE8" transform="translate(522,363)"/>
<path d="M0 0 C0.66 0 1.32 0 2 0 C1.34 2.64 0.68 5.28 0 8 C-0.66 7.67 -1.32 7.34 -2 7 C-1.34 4.69 -0.68 2.38 0 0 Z " fill="#292125" transform="translate(975,868)"/>
<path d="M0 0 C3.08089673 2.77280706 4.68775452 5.06326356 6 9 C1.3125 5.484375 1.3125 5.484375 0 4 C0 2.68 0 1.36 0 0 Z " fill="#DA807B" transform="translate(306,537)"/>
<path d="M0 0 C1.32 0.66 2.64 1.32 4 2 C3.67 3.32 3.34 4.64 3 6 C0.525 5.01 0.525 5.01 -2 4 C-1.34 2.68 -0.68 1.36 0 0 Z " fill="#110D0D" transform="translate(827,522)"/>
</svg>
